<svg width="40" height="40" viewBox="0 0 40 40" fill="none" xmlns="http://www.w3.org/2000/svg">
<path d="M15 27.5C13.8333 27.5 12.8472 27.0973 12.0417 26.2917C11.2361 25.4862 10.8333 24.5 10.8333 23.3334C10.8333 22.1667 11.2361 21.1806 12.0417 20.375C12.8472 19.5695 13.8333 19.1667 15 19.1667C16.1667 19.1667 17.1528 19.5695 17.9583 20.375C18.7639 21.1806 19.1667 22.1667 19.1667 23.3334C19.1667 24.5 18.7639 25.4862 17.9583 26.2917C17.1528 27.0973 16.1667 27.5 15 27.5ZM8.33333 36.6667C7.41667 36.6667 6.63194 36.3403 5.97917 35.6875C5.32639 35.0348 5 34.25 5 33.3334V10C5 9.08337 5.32639 8.29865 5.97917 7.64587C6.63194 6.9931 7.41667 6.66671 8.33333 6.66671H10V3.33337H13.3333V6.66671H26.6667V3.33337H30V6.66671H31.6667C32.5833 6.66671 33.3681 6.9931 34.0208 7.64587C34.6736 8.29865 35 9.08337 35 10V33.3334C35 34.25 34.6736 35.0348 34.0208 35.6875C33.3681 36.3403 32.5833 36.6667 31.6667 36.6667H8.33333ZM8.33333 33.3334H31.6667V16.6667H8.33333V33.3334Z" fill="#626584"/>
</svg>
