<svg width="40" height="40" viewBox="0 0 40 40" fill="none" xmlns="http://www.w3.org/2000/svg">
<g clip-path="url(#clip0_18_243)">
<path d="M20.625 3.75H19.375V5.625H17.5V6.875H19.375V8.75H20.625V6.875H22.5V5.625H20.625V3.75Z" fill="#626584"/>
<mask id="path-2-outside-1_18_243" maskUnits="userSpaceOnUse" x="0.25" y="0.25" width="40" height="40" fill="black">
<rect fill="white" x="0.25" y="0.25" width="40" height="40"/>
<path d="M30.625 26.25H24.375V23.9125C25.5969 23.2609 26.6607 22.3488 27.4912 21.2407C28.3217 20.1326 28.8987 18.8556 29.1812 17.5H30C30.4968 17.4985 30.9729 17.3005 31.3242 16.9492C31.6755 16.5979 31.8735 16.1218 31.875 15.625V13.75C31.8735 13.2532 31.6755 12.7771 31.3242 12.4258C30.9729 12.0745 30.4968 11.8765 30 11.875H29.375V11.25C29.5408 11.25 29.6997 11.1842 29.8169 11.0669C29.9342 10.9497 30 10.7908 30 10.625V6.875C29.9977 5.38387 29.4043 3.95447 28.3499 2.90008C27.2955 1.84569 25.8661 1.25231 24.375 1.25H15.625C14.1339 1.25231 12.7045 1.84569 11.6501 2.90008C10.5957 3.95447 10.0023 5.38387 10 6.875V10.625C10 10.7908 10.0658 10.9497 10.1831 11.0669C10.3003 11.1842 10.4592 11.25 10.625 11.25V11.875H10C9.50318 11.8765 9.02712 12.0745 8.67581 12.4258C8.3245 12.7771 8.12648 13.2532 8.125 13.75V15.625C8.12648 16.1218 8.3245 16.5979 8.67581 16.9492C9.02712 17.3005 9.50318 17.4985 10 17.5H10.8187C11.1013 18.8556 11.6783 20.1326 12.5088 21.2407C13.3393 22.3488 14.4031 23.2609 15.625 23.9125V26.25H9.375C7.22073 26.252 5.15525 27.1087 3.63195 28.632C2.10865 30.1553 1.25199 32.2207 1.25 34.375V38.125C1.25 38.2908 1.31585 38.4497 1.43306 38.5669C1.55027 38.6842 1.70924 38.75 1.875 38.75H38.125C38.2908 38.75 38.4497 38.6842 38.5669 38.5669C38.6842 38.4497 38.75 38.2908 38.75 38.125V34.375C38.748 32.2207 37.8914 30.1553 36.368 28.632C34.8447 27.1087 32.7793 26.252 30.625 26.25ZM29.375 15.625V13.125H30C30.1658 13.125 30.3247 13.1908 30.4419 13.3081C30.5592 13.4253 30.625 13.5842 30.625 13.75V15.625C30.625 15.7908 30.5592 15.9497 30.4419 16.0669C30.3247 16.1842 30.1658 16.25 30 16.25H29.35C29.3687 16.0437 29.375 15.8375 29.375 15.625ZM10 16.25C9.83424 16.25 9.67527 16.1842 9.55806 16.0669C9.44085 15.9497 9.375 15.7908 9.375 15.625V13.75C9.375 13.5842 9.44085 13.4253 9.55806 13.3081C9.67527 13.1908 9.83424 13.125 10 13.125H10.625V15.625C10.625 15.8375 10.6313 16.0437 10.65 16.25H10ZM28.125 15.625C28.1211 17.5156 27.4581 19.3457 26.25 20.8V16.475L28.125 14.225V15.625ZM11.25 6.875C11.2513 5.71508 11.7127 4.60305 12.5329 3.78287C13.3531 2.96268 14.4651 2.50132 15.625 2.5H24.375C25.5349 2.50132 26.6469 2.96268 27.4671 3.78287C28.2873 4.60305 28.7487 5.71508 28.75 6.875V10H11.25V6.875ZM13.75 20.8C12.5412 19.3461 11.878 17.5158 11.875 15.625V14.225L13.75 16.475V20.8ZM11.875 12.275V11.25H28.125V12.275L25.3875 15.5562L20.1375 14.3875C20.0468 14.3688 19.9532 14.3688 19.8625 14.3875L14.6125 15.5562L11.875 12.275ZM15 22.025V16.75L20 15.6375L25 16.75V22.025C24.5289 22.393 24.0198 22.7094 23.4813 22.9688C22.3922 23.4812 21.2035 23.7469 20 23.7469C18.7965 23.7469 17.6078 23.4812 16.5188 22.9688C15.9802 22.7094 15.4711 22.393 15 22.025ZM23.125 24.4625V26.875C23.125 27.7038 22.7958 28.4987 22.2097 29.0847C21.6237 29.6708 20.8288 30 20 30C19.1712 30 18.3763 29.6708 17.7903 29.0847C17.2042 28.4987 16.875 27.7038 16.875 26.875V24.4625C18.8967 25.1792 21.1033 25.1792 23.125 24.4625ZM11.875 33.125C11.9986 33.125 12.1195 33.1617 12.2222 33.2303C12.325 33.299 12.4051 33.3966 12.4524 33.5108C12.4997 33.625 12.5121 33.7507 12.488 33.8719C12.4639 33.9932 12.4044 34.1045 12.3169 34.1919C12.2295 34.2793 12.1182 34.3389 11.9969 34.363C11.8757 34.3871 11.75 34.3747 11.6358 34.3274C11.5216 34.2801 11.424 34.2 11.3553 34.0972C11.2867 33.9944 11.25 33.8736 11.25 33.75C11.25 33.5842 11.3158 33.4253 11.4331 33.3081C11.5503 33.1908 11.7092 33.125 11.875 33.125ZM37.5 37.5H2.5V34.375C2.50116 32.552 3.22586 30.804 4.51492 29.5149C5.80398 28.2259 7.55199 27.5012 9.375 27.5H11.25V31.9875C10.833 32.1349 10.4815 32.425 10.2577 32.8065C10.0339 33.1881 9.95221 33.6364 10.027 34.0723C10.1018 34.5083 10.3283 34.9037 10.6665 35.1888C11.0046 35.4739 11.4327 35.6303 11.875 35.6303C12.3173 35.6303 12.7454 35.4739 13.0835 35.1888C13.4217 34.9037 13.6482 34.5083 13.723 34.0723C13.7978 33.6364 13.7161 33.1881 13.4923 32.8065C13.2685 32.425 12.917 32.1349 12.5 31.9875V27.5H15.6687C15.8173 28.5429 16.3372 29.4971 17.1329 30.1874C17.9286 30.8778 18.9466 31.2578 20 31.2578C21.0534 31.2578 22.0714 30.8778 22.8671 30.1874C23.6628 29.4971 24.1826 28.5429 24.3312 27.5H27.5V30.675C26.4596 30.8252 25.5081 31.3449 24.8195 32.1391C24.1309 32.9333 23.7512 33.9488 23.75 35C23.75 35.1658 23.8158 35.3247 23.9331 35.4419C24.0503 35.5592 24.2092 35.625 24.375 35.625H25.625V34.375H25.0625C25.2059 33.6686 25.5892 33.0335 26.1473 32.5773C26.7055 32.1211 27.4042 31.8719 28.125 31.8719C28.8458 31.8719 29.5445 32.1211 30.1027 32.5773C30.6608 33.0335 31.0441 33.6686 31.1875 34.375H30.625V35.625H31.875C32.0408 35.625 32.1997 35.5592 32.3169 35.4419C32.4342 35.3247 32.5 35.1658 32.5 35C32.4988 33.9488 32.1191 32.9333 31.4305 32.1391C30.7419 31.3449 29.7904 30.8252 28.75 30.675V27.5H30.625C32.448 27.5012 34.196 28.2259 35.4851 29.5149C36.7741 30.804 37.4988 32.552 37.5 34.375V37.5Z"/>
</mask>
<path d="M30.625 26.25H24.375V23.9125C25.5969 23.2609 26.6607 22.3488 27.4912 21.2407C28.3217 20.1326 28.8987 18.8556 29.1812 17.5H30C30.4968 17.4985 30.9729 17.3005 31.3242 16.9492C31.6755 16.5979 31.8735 16.1218 31.875 15.625V13.75C31.8735 13.2532 31.6755 12.7771 31.3242 12.4258C30.9729 12.0745 30.4968 11.8765 30 11.875H29.375V11.25C29.5408 11.25 29.6997 11.1842 29.8169 11.0669C29.9342 10.9497 30 10.7908 30 10.625V6.875C29.9977 5.38387 29.4043 3.95447 28.3499 2.90008C27.2955 1.84569 25.8661 1.25231 24.375 1.25H15.625C14.1339 1.25231 12.7045 1.84569 11.6501 2.90008C10.5957 3.95447 10.0023 5.38387 10 6.875V10.625C10 10.7908 10.0658 10.9497 10.1831 11.0669C10.3003 11.1842 10.4592 11.25 10.625 11.25V11.875H10C9.50318 11.8765 9.02712 12.0745 8.67581 12.4258C8.3245 12.7771 8.12648 13.2532 8.125 13.75V15.625C8.12648 16.1218 8.3245 16.5979 8.67581 16.9492C9.02712 17.3005 9.50318 17.4985 10 17.5H10.8187C11.1013 18.8556 11.6783 20.1326 12.5088 21.2407C13.3393 22.3488 14.4031 23.2609 15.625 23.9125V26.25H9.375C7.22073 26.252 5.15525 27.1087 3.63195 28.632C2.10865 30.1553 1.25199 32.2207 1.25 34.375V38.125C1.25 38.2908 1.31585 38.4497 1.43306 38.5669C1.55027 38.6842 1.70924 38.75 1.875 38.75H38.125C38.2908 38.75 38.4497 38.6842 38.5669 38.5669C38.6842 38.4497 38.75 38.2908 38.75 38.125V34.375C38.748 32.2207 37.8914 30.1553 36.368 28.632C34.8447 27.1087 32.7793 26.252 30.625 26.25ZM29.375 15.625V13.125H30C30.1658 13.125 30.3247 13.1908 30.4419 13.3081C30.5592 13.4253 30.625 13.5842 30.625 13.75V15.625C30.625 15.7908 30.5592 15.9497 30.4419 16.0669C30.3247 16.1842 30.1658 16.25 30 16.25H29.35C29.3687 16.0437 29.375 15.8375 29.375 15.625ZM10 16.25C9.83424 16.25 9.67527 16.1842 9.55806 16.0669C9.44085 15.9497 9.375 15.7908 9.375 15.625V13.75C9.375 13.5842 9.44085 13.4253 9.55806 13.3081C9.67527 13.1908 9.83424 13.125 10 13.125H10.625V15.625C10.625 15.8375 10.6313 16.0437 10.65 16.25H10ZM28.125 15.625C28.1211 17.5156 27.4581 19.3457 26.25 20.8V16.475L28.125 14.225V15.625ZM11.25 6.875C11.2513 5.71508 11.7127 4.60305 12.5329 3.78287C13.3531 2.96268 14.4651 2.50132 15.625 2.5H24.375C25.5349 2.50132 26.6469 2.96268 27.4671 3.78287C28.2873 4.60305 28.7487 5.71508 28.75 6.875V10H11.25V6.875ZM13.75 20.8C12.5412 19.3461 11.878 17.5158 11.875 15.625V14.225L13.75 16.475V20.8ZM11.875 12.275V11.25H28.125V12.275L25.3875 15.5562L20.1375 14.3875C20.0468 14.3688 19.9532 14.3688 19.8625 14.3875L14.6125 15.5562L11.875 12.275ZM15 22.025V16.75L20 15.6375L25 16.75V22.025C24.5289 22.393 24.0198 22.7094 23.4813 22.9688C22.3922 23.4812 21.2035 23.7469 20 23.7469C18.7965 23.7469 17.6078 23.4812 16.5188 22.9688C15.9802 22.7094 15.4711 22.393 15 22.025ZM23.125 24.4625V26.875C23.125 27.7038 22.7958 28.4987 22.2097 29.0847C21.6237 29.6708 20.8288 30 20 30C19.1712 30 18.3763 29.6708 17.7903 29.0847C17.2042 28.4987 16.875 27.7038 16.875 26.875V24.4625C18.8967 25.1792 21.1033 25.1792 23.125 24.4625ZM11.875 33.125C11.9986 33.125 12.1195 33.1617 12.2222 33.2303C12.325 33.299 12.4051 33.3966 12.4524 33.5108C12.4997 33.625 12.5121 33.7507 12.488 33.8719C12.4639 33.9932 12.4044 34.1045 12.3169 34.1919C12.2295 34.2793 12.1182 34.3389 11.9969 34.363C11.8757 34.3871 11.75 34.3747 11.6358 34.3274C11.5216 34.2801 11.424 34.2 11.3553 34.0972C11.2867 33.9944 11.25 33.8736 11.25 33.75C11.25 33.5842 11.3158 33.4253 11.4331 33.3081C11.5503 33.1908 11.7092 33.125 11.875 33.125ZM37.5 37.5H2.5V34.375C2.50116 32.552 3.22586 30.804 4.51492 29.5149C5.80398 28.2259 7.55199 27.5012 9.375 27.5H11.25V31.9875C10.833 32.1349 10.4815 32.425 10.2577 32.8065C10.0339 33.1881 9.95221 33.6364 10.027 34.0723C10.1018 34.5083 10.3283 34.9037 10.6665 35.1888C11.0046 35.4739 11.4327 35.6303 11.875 35.6303C12.3173 35.6303 12.7454 35.4739 13.0835 35.1888C13.4217 34.9037 13.6482 34.5083 13.723 34.0723C13.7978 33.6364 13.7161 33.1881 13.4923 32.8065C13.2685 32.425 12.917 32.1349 12.5 31.9875V27.5H15.6687C15.8173 28.5429 16.3372 29.4971 17.1329 30.1874C17.9286 30.8778 18.9466 31.2578 20 31.2578C21.0534 31.2578 22.0714 30.8778 22.8671 30.1874C23.6628 29.4971 24.1826 28.5429 24.3312 27.5H27.5V30.675C26.4596 30.8252 25.5081 31.3449 24.8195 32.1391C24.1309 32.9333 23.7512 33.9488 23.75 35C23.75 35.1658 23.8158 35.3247 23.9331 35.4419C24.0503 35.5592 24.2092 35.625 24.375 35.625H25.625V34.375H25.0625C25.2059 33.6686 25.5892 33.0335 26.1473 32.5773C26.7055 32.1211 27.4042 31.8719 28.125 31.8719C28.8458 31.8719 29.5445 32.1211 30.1027 32.5773C30.6608 33.0335 31.0441 33.6686 31.1875 34.375H30.625V35.625H31.875C32.0408 35.625 32.1997 35.5592 32.3169 35.4419C32.4342 35.3247 32.5 35.1658 32.5 35C32.4988 33.9488 32.1191 32.9333 31.4305 32.1391C30.7419 31.3449 29.7904 30.8252 28.75 30.675V27.5H30.625C32.448 27.5012 34.196 28.2259 35.4851 29.5149C36.7741 30.804 37.4988 32.552 37.5 34.375V37.5Z" fill="#626584"/>
<path d="M30.625 26.25H24.375V23.9125C25.5969 23.2609 26.6607 22.3488 27.4912 21.2407C28.3217 20.1326 28.8987 18.8556 29.1812 17.5H30C30.4968 17.4985 30.9729 17.3005 31.3242 16.9492C31.6755 16.5979 31.8735 16.1218 31.875 15.625V13.75C31.8735 13.2532 31.6755 12.7771 31.3242 12.4258C30.9729 12.0745 30.4968 11.8765 30 11.875H29.375V11.25C29.5408 11.25 29.6997 11.1842 29.8169 11.0669C29.9342 10.9497 30 10.7908 30 10.625V6.875C29.9977 5.38387 29.4043 3.95447 28.3499 2.90008C27.2955 1.84569 25.8661 1.25231 24.375 1.25H15.625C14.1339 1.25231 12.7045 1.84569 11.6501 2.90008C10.5957 3.95447 10.0023 5.38387 10 6.875V10.625C10 10.7908 10.0658 10.9497 10.1831 11.0669C10.3003 11.1842 10.4592 11.25 10.625 11.25V11.875H10C9.50318 11.8765 9.02712 12.0745 8.67581 12.4258C8.3245 12.7771 8.12648 13.2532 8.125 13.75V15.625C8.12648 16.1218 8.3245 16.5979 8.67581 16.9492C9.02712 17.3005 9.50318 17.4985 10 17.5H10.8187C11.1013 18.8556 11.6783 20.1326 12.5088 21.2407C13.3393 22.3488 14.4031 23.2609 15.625 23.9125V26.25H9.375C7.22073 26.252 5.15525 27.1087 3.63195 28.632C2.10865 30.1553 1.25199 32.2207 1.25 34.375V38.125C1.25 38.2908 1.31585 38.4497 1.43306 38.5669C1.55027 38.6842 1.70924 38.75 1.875 38.75H38.125C38.2908 38.75 38.4497 38.6842 38.5669 38.5669C38.6842 38.4497 38.75 38.2908 38.75 38.125V34.375C38.748 32.2207 37.8914 30.1553 36.368 28.632C34.8447 27.1087 32.7793 26.252 30.625 26.25ZM29.375 15.625V13.125H30C30.1658 13.125 30.3247 13.1908 30.4419 13.3081C30.5592 13.4253 30.625 13.5842 30.625 13.75V15.625C30.625 15.7908 30.5592 15.9497 30.4419 16.0669C30.3247 16.1842 30.1658 16.25 30 16.25H29.35C29.3687 16.0437 29.375 15.8375 29.375 15.625ZM10 16.25C9.83424 16.25 9.67527 16.1842 9.55806 16.0669C9.44085 15.9497 9.375 15.7908 9.375 15.625V13.75C9.375 13.5842 9.44085 13.4253 9.55806 13.3081C9.67527 13.1908 9.83424 13.125 10 13.125H10.625V15.625C10.625 15.8375 10.6313 16.0437 10.65 16.25H10ZM28.125 15.625C28.1211 17.5156 27.4581 19.3457 26.25 20.8V16.475L28.125 14.225V15.625ZM11.25 6.875C11.2513 5.71508 11.7127 4.60305 12.5329 3.78287C13.3531 2.96268 14.4651 2.50132 15.625 2.5H24.375C25.5349 2.50132 26.6469 2.96268 27.4671 3.78287C28.2873 4.60305 28.7487 5.71508 28.75 6.875V10H11.25V6.875ZM13.75 20.8C12.5412 19.3461 11.878 17.5158 11.875 15.625V14.225L13.75 16.475V20.8ZM11.875 12.275V11.25H28.125V12.275L25.3875 15.5562L20.1375 14.3875C20.0468 14.3688 19.9532 14.3688 19.8625 14.3875L14.6125 15.5562L11.875 12.275ZM15 22.025V16.75L20 15.6375L25 16.75V22.025C24.5289 22.393 24.0198 22.7094 23.4813 22.9688C22.3922 23.4812 21.2035 23.7469 20 23.7469C18.7965 23.7469 17.6078 23.4812 16.5188 22.9688C15.9802 22.7094 15.4711 22.393 15 22.025ZM23.125 24.4625V26.875C23.125 27.7038 22.7958 28.4987 22.2097 29.0847C21.6237 29.6708 20.8288 30 20 30C19.1712 30 18.3763 29.6708 17.7903 29.0847C17.2042 28.4987 16.875 27.7038 16.875 26.875V24.4625C18.8967 25.1792 21.1033 25.1792 23.125 24.4625ZM11.875 33.125C11.9986 33.125 12.1195 33.1617 12.2222 33.2303C12.325 33.299 12.4051 33.3966 12.4524 33.5108C12.4997 33.625 12.5121 33.7507 12.488 33.8719C12.4639 33.9932 12.4044 34.1045 12.3169 34.1919C12.2295 34.2793 12.1182 34.3389 11.9969 34.363C11.8757 34.3871 11.75 34.3747 11.6358 34.3274C11.5216 34.2801 11.424 34.2 11.3553 34.0972C11.2867 33.9944 11.25 33.8736 11.25 33.75C11.25 33.5842 11.3158 33.4253 11.4331 33.3081C11.5503 33.1908 11.7092 33.125 11.875 33.125ZM37.5 37.5H2.5V34.375C2.50116 32.552 3.22586 30.804 4.51492 29.5149C5.80398 28.2259 7.55199 27.5012 9.375 27.5H11.25V31.9875C10.833 32.1349 10.4815 32.425 10.2577 32.8065C10.0339 33.1881 9.95221 33.6364 10.027 34.0723C10.1018 34.5083 10.3283 34.9037 10.6665 35.1888C11.0046 35.4739 11.4327 35.6303 11.875 35.6303C12.3173 35.6303 12.7454 35.4739 13.0835 35.1888C13.4217 34.9037 13.6482 34.5083 13.723 34.0723C13.7978 33.6364 13.7161 33.1881 13.4923 32.8065C13.2685 32.425 12.917 32.1349 12.5 31.9875V27.5H15.6687C15.8173 28.5429 16.3372 29.4971 17.1329 30.1874C17.9286 30.8778 18.9466 31.2578 20 31.2578C21.0534 31.2578 22.0714 30.8778 22.8671 30.1874C23.6628 29.4971 24.1826 28.5429 24.3312 27.5H27.5V30.675C26.4596 30.8252 25.5081 31.3449 24.8195 32.1391C24.1309 32.9333 23.7512 33.9488 23.75 35C23.75 35.1658 23.8158 35.3247 23.9331 35.4419C24.0503 35.5592 24.2092 35.625 24.375 35.625H25.625V34.375H25.0625C25.2059 33.6686 25.5892 33.0335 26.1473 32.5773C26.7055 32.1211 27.4042 31.8719 28.125 31.8719C28.8458 31.8719 29.5445 32.1211 30.1027 32.5773C30.6608 33.0335 31.0441 33.6686 31.1875 34.375H30.625V35.625H31.875C32.0408 35.625 32.1997 35.5592 32.3169 35.4419C32.4342 35.3247 32.5 35.1658 32.5 35C32.4988 33.9488 32.1191 32.9333 31.4305 32.1391C30.7419 31.3449 29.7904 30.8252 28.75 30.675V27.5H30.625C32.448 27.5012 34.196 28.2259 35.4851 29.5149C36.7741 30.804 37.4988 32.552 37.5 34.375V37.5Z" stroke="#626584" stroke-width="2" mask="url(#path-2-outside-1_18_243)"/>
<path d="M16.25 13.75H16.875C17.0408 13.75 17.1997 13.6842 17.3169 13.5669C17.4342 13.4497 17.5 13.2908 17.5 13.125C17.5 12.9592 17.4342 12.8003 17.3169 12.6831C17.1997 12.5658 17.0408 12.5 16.875 12.5H16.25C16.0842 12.5 15.9253 12.5658 15.8081 12.6831C15.6908 12.8003 15.625 12.9592 15.625 13.125C15.625 13.2908 15.6908 13.4497 15.8081 13.5669C15.9253 13.6842 16.0842 13.75 16.25 13.75Z" fill="#626584"/>
<path d="M23.125 13.75H23.75C23.9158 13.75 24.0747 13.6842 24.1919 13.5669C24.3092 13.4497 24.375 13.2908 24.375 13.125C24.375 12.9592 24.3092 12.8003 24.1919 12.6831C24.0747 12.5658 23.9158 12.5 23.75 12.5H23.125C22.9592 12.5 22.8003 12.5658 22.6831 12.6831C22.5658 12.8003 22.5 12.9592 22.5 13.125C22.5 13.2908 22.5658 13.4497 22.6831 13.5669C22.8003 13.6842 22.9592 13.75 23.125 13.75Z" fill="#626584"/>
</g>
<defs>
<clipPath id="clip0_18_243">
<rect width="40" height="40" fill="white"/>
</clipPath>
</defs>
</svg>
