<svg width="40" height="40" viewBox="0 0 40 40" fill="none" xmlns="http://www.w3.org/2000/svg">
<path d="M18.333 28.3334H21.6663V21.6667H28.333V18.3334H21.6663V11.6667H18.333V18.3334H11.6663V21.6667H18.333V28.3334ZM19.9997 36.6667C17.6941 36.6667 15.5275 36.2362 13.4997 35.375C11.4719 34.4862 9.70801 33.2917 8.20801 31.7917C6.70801 30.2917 5.51356 28.5278 4.62467 26.5C3.76356 24.4723 3.33301 22.3056 3.33301 20C3.33301 17.6945 3.76356 15.5278 4.62467 13.5C5.51356 11.4723 6.70801 9.70837 8.20801 8.20837C9.70801 6.70837 11.4719 5.52782 13.4997 4.66671C15.5275 3.77782 17.6941 3.33337 19.9997 3.33337C22.3052 3.33337 24.4719 3.77782 26.4997 4.66671C28.5275 5.52782 30.2913 6.70837 31.7913 8.20837C33.2913 9.70837 34.4719 11.4723 35.333 13.5C36.2219 15.5278 36.6663 17.6945 36.6663 20C36.6663 22.3056 36.2219 24.4723 35.333 26.5C34.4719 28.5278 33.2913 30.2917 31.7913 31.7917C30.2913 33.2917 28.5275 34.4862 26.4997 35.375C24.4719 36.2362 22.3052 36.6667 19.9997 36.6667ZM19.9997 33.3334C23.7219 33.3334 26.8747 32.0417 29.458 29.4584C32.0413 26.875 33.333 23.7223 33.333 20C33.333 16.2778 32.0413 13.125 29.458 10.5417C26.8747 7.95837 23.7219 6.66671 19.9997 6.66671C16.2775 6.66671 13.1247 7.95837 10.5413 10.5417C7.95801 13.125 6.66634 16.2778 6.66634 20C6.66634 23.7223 7.95801 26.875 10.5413 29.4584C13.1247 32.0417 16.2775 33.3334 19.9997 33.3334Z" fill="#626584"/>
</svg>
