<?xml version='1.0' encoding='iso-8859-1'?>
<svg version="1.1" xmlns="http://www.w3.org/2000/svg" viewBox="0 0 30.001 30.001" xmlns:xlink="http://www.w3.org/1999/xlink" enable-background="new 0 0 30.001 30.001">
  <g>
    <g>
      <path d="m10.053,11.377l-6.732,6.733c-1.057,1.058-1.654,2.482-1.715,3.867v0.512c0.06,1.385 0.771,3.035 1.829,4.093 2.246,2.246 6.183,2.317 8.429,0.071l6.732-6.732-8.543-8.544z"/>
    </g>
  </g>
  <g>
    <g>
      <path d="m27.671,2.316c-3.085-3.088-8.087-3.088-11.173,0l-14.169,14.184c-3.084,3.089-3.084,8.096-4.44089e-16,11.185 3.086,3.088 8.088,3.088 11.174,0l14.168-14.185c3.085-3.087 3.085-8.095 0-11.184zm-15.565,23.971c-2.315,2.316-6.066,2.316-8.381,0-2.312-2.316-2.312-6.071 0-8.388l6.377-6.384 8.38,8.389-6.376,6.383zm14.169-14.184l-6.38,6.387-8.38-8.389 6.38-6.387c2.314-2.316 6.066-2.316 8.38,0 2.313,2.317 2.313,6.073 0,8.389z"/>
    </g>
  </g>
</svg>
