<svg width="40" height="40" viewBox="0 0 40 40" fill="none" xmlns="http://www.w3.org/2000/svg">
<path fill-rule="evenodd" clip-rule="evenodd" d="M20 18C24.9706 18 29 14.1944 29 9.5C29 4.80558 24.9706 1 20 1C15.0294 1 11 4.80558 11 9.5C11 14.1944 15.0294 18 20 18ZM20 15.875C23.7279 15.875 26.75 13.0208 26.75 9.5C26.75 5.97919 23.7279 3.125 20 3.125C16.2721 3.125 13.25 5.97919 13.25 9.5C13.25 13.0208 16.2721 15.875 20 15.875Z" fill="#626584"/>
<path fill-rule="evenodd" clip-rule="evenodd" d="M38 29.5C38 24.2533 33.7336 20 28.4706 20H11.5294C6.26642 20 2 24.2533 2 29.5C2 34.7467 6.26642 39 11.5294 39H20C22.339 39 24.2353 37.1096 24.2353 34.7778C24.2353 32.7663 22.8244 31.0833 20.9354 30.6589L24.4186 22.1111H28.4706C32.564 22.1111 35.8824 25.4192 35.8824 29.5C35.8824 33.5808 32.564 36.8889 28.4706 36.8889V32.6667C30.225 32.6667 31.6471 31.249 31.6471 29.5C31.6471 27.751 30.225 26.3333 28.4706 26.3333H26.3529V39H28.4706C33.7336 39 38 34.7467 38 29.5ZM11.5294 22.1111C7.436 22.1111 4.11765 25.4192 4.11765 29.5C4.11765 31.4116 4.84585 33.1537 6.04079 34.4657L8.89855 31.2748C8.55454 30.769 8.35294 30.1581 8.35294 29.5C8.35294 27.751 9.77505 26.3333 11.5294 26.3333H13.3242L17.1057 22.1111H11.5294ZM20.1158 32.6697L18.3965 36.8889H20C21.1696 36.8889 22.1176 35.9437 22.1176 34.7778C22.1176 33.6506 21.2315 32.7298 20.1158 32.6697ZM16.1108 36.8889L22.1329 22.1111H19.9446L7.67402 35.8118C8.79733 36.4952 10.1173 36.8889 11.5294 36.8889H16.1108ZM29.5294 29.5C29.5294 30.083 29.0554 30.5556 28.4706 30.5556V28.4444C29.0554 28.4444 29.5294 28.917 29.5294 29.5ZM11.4294 28.4491C10.8915 28.4993 10.4706 28.9507 10.4706 29.5L10.4708 29.5193L11.4294 28.4491Z" fill="#626584"/>
</svg>
