<svg width="40" height="40" viewBox="0 0 40 40" fill="none" xmlns="http://www.w3.org/2000/svg">
<path d="M25.4997 27.8334L27.833 25.5L21.6663 19.3334V11.6667H18.333V20.6667L25.4997 27.8334ZM19.9997 36.6667C17.6941 36.6667 15.5275 36.2292 13.4997 35.3542C11.4719 34.4792 9.70801 33.2917 8.20801 31.7917C6.70801 30.2917 5.52051 28.5278 4.64551 26.5C3.77051 24.4723 3.33301 22.3056 3.33301 20C3.33301 17.6945 3.77051 15.5278 4.64551 13.5C5.52051 11.4723 6.70801 9.70837 8.20801 8.20837C9.70801 6.70837 11.4719 5.52087 13.4997 4.64587C15.5275 3.77087 17.6941 3.33337 19.9997 3.33337C22.3052 3.33337 24.4719 3.77087 26.4997 4.64587C28.5275 5.52087 30.2913 6.70837 31.7913 8.20837C33.2913 9.70837 34.4788 11.4723 35.3538 13.5C36.2288 15.5278 36.6663 17.6945 36.6663 20C36.6663 22.3056 36.2288 24.4723 35.3538 26.5C34.4788 28.5278 33.2913 30.2917 31.7913 31.7917C30.2913 33.2917 28.5275 34.4792 26.4997 35.3542C24.4719 36.2292 22.3052 36.6667 19.9997 36.6667ZM19.9997 33.3334C23.6941 33.3334 26.84 32.0348 29.4372 29.4375C32.0344 26.8403 33.333 23.6945 33.333 20C33.333 16.3056 32.0344 13.1598 29.4372 10.5625C26.84 7.96532 23.6941 6.66671 19.9997 6.66671C16.3052 6.66671 13.1594 7.96532 10.5622 10.5625C7.96495 13.1598 6.66634 16.3056 6.66634 20C6.66634 23.6945 7.96495 26.8403 10.5622 29.4375C13.1594 32.0348 16.3052 33.3334 19.9997 33.3334Z" fill="#626584"/>
</svg>
